<svg width="22" height="22" viewBox="0 0 22 22" fill="none" xmlns="http://www.w3.org/2000/svg">
    <path d="M0.566913 10.4335C0.742161 10.2623 0.751029 10.2536 0.795658 9.71284C2.05647 -3.62843 20.27 -2.87168 21.2175 9.8084C21.2701 10.298 21.2956 10.3171 21.4436 10.428C21.49 10.4628 21.5485 10.5066 21.6236 10.5768C22.3523 11.2579 22.118 14.084 20.0745 13.4837C20.0605 12.9443 20.0592 12.4364 20.0579 11.9523C20.0526 9.90692 20.0485 8.28283 19.0889 6.46943C15.449 -0.758685 4.42609 -0.148713 2.2714 8.13817C1.89728 9.49283 1.91157 10.7315 1.92706 12.0775C1.93229 12.5353 1.93771 13.0055 1.92809 13.4969C0.0119459 14.0024 -0.428833 11.5127 0.396614 10.6083C0.466452 10.5317 0.522191 10.4773 0.566913 10.4335Z"
          fill="white"/>
    <path fill-rule="evenodd" clip-rule="evenodd"
          d="M4.21601 8.68463C4.50479 7.94873 5.08281 6.47576 6.61233 5.31678C10.0451 2.71509 15.02 3.56581 17.2951 7.5466C17.5081 7.91974 17.6379 8.26642 17.7445 8.55108C17.8657 8.87459 17.9568 9.11819 18.1063 9.22973C18.2506 9.33715 18.4372 9.36561 18.6338 9.39567C19.192 9.48085 19.8309 9.57832 19.8111 11.5279C19.8098 11.6509 19.8094 11.7709 19.809 11.8875C19.8046 13.2136 19.8017 14.1196 18.5555 14.3585L18.107 14.4201C17.9726 14.7342 17.8483 15.0298 17.7308 15.3093C16.6532 17.8732 16.1414 19.0908 13.5425 20.8215C13.1536 21.0807 11.361 21.9898 10.9626 21.9999C10.6835 22.0062 8.71194 20.9351 8.42475 20.7551C7.02099 19.8776 4.75445 17.4794 4.27557 15.6791C3.94823 14.4487 3.92872 14.445 3.54863 14.374C3.51483 14.3676 3.47814 14.3607 3.43817 14.3525C2.06047 14.0664 2.10771 12.8683 2.167 11.3651C2.1712 11.2604 2.17531 11.1543 2.17914 11.0468C2.23049 9.58181 2.89768 9.45895 3.43603 9.35979C3.69269 9.31259 3.92004 9.27069 4.0374 9.09132C4.08511 9.01819 4.14075 8.87649 4.21601 8.68463ZM13.2588 17.8946C13.1639 17.8946 13.069 17.8922 12.3787 17.8749C12.209 18.4141 11.7548 18.7997 11.221 18.7997C10.542 18.7997 9.99189 18.1762 9.99189 17.4067C9.99189 16.6371 10.542 16.0136 11.221 16.0136C11.7397 16.0136 12.1825 16.3778 12.3632 16.8923C12.9668 16.9534 13.673 16.9415 14.3334 16.9304C14.5497 16.9266 14.7612 16.9232 14.9625 16.9222C15.8183 16.918 15.8453 16.8625 16.189 16.1571C16.1972 16.1403 16.2056 16.123 16.2142 16.1055C16.6704 15.1711 17.0145 14.0294 17.1291 12.793C16.9292 12.7756 16.705 12.7659 16.4649 12.7554C15.2985 12.7047 13.7582 12.6378 12.7997 11.5879C12.5615 11.3266 12.4368 11.0286 12.3175 10.7441C12.2767 10.6466 12.2366 10.5507 12.1927 10.4584C12.13 10.3261 12.1284 10.3185 12.1241 10.3145C12.1213 10.312 12.1172 10.311 12.0929 10.2756C11.8694 10.4091 11.7503 10.5109 11.6386 10.6065C11.427 10.7875 11.2416 10.9462 10.422 11.2555C9.84895 11.4719 8.95581 11.7299 8.37676 11.8104C8.43091 11.6944 8.49487 11.5785 8.5606 11.4596C8.80923 11.0093 9.08195 10.5156 8.93677 9.80806C8.87505 9.77748 8.86553 9.75875 8.85246 9.75462C8.83752 9.74997 8.8181 9.76425 8.71269 9.80171C8.65266 9.82309 8.62147 9.84828 8.57236 9.88796C8.55359 9.9032 8.53212 9.92045 8.50551 9.94045C7.52872 10.6785 5.95494 11.1296 4.81093 11.3216C4.80104 15.378 7.08448 19.632 10.7586 20.5271C11.1806 20.6299 11.5982 20.4206 11.9731 20.2329C12.0218 20.2085 12.0697 20.1844 12.1169 20.1616C12.9155 19.7732 14.3859 18.7497 14.9336 17.9938C14.9363 17.9901 14.9429 17.9821 14.9511 17.9726C14.9682 17.9524 14.9918 17.9246 14.9992 17.9109C13.509 17.8905 13.3839 17.8946 13.2588 17.8946Z"
          fill="white"/>
</svg>
