<svg width="22" height="22" viewBox="0 0 22 22" fill="none" xmlns="http://www.w3.org/2000/svg">
<path fill-rule="evenodd" clip-rule="evenodd" d="M1.81709 2.50247H4.1851V1.20423C4.1851 0.87196 4.33782 0.570538 4.58385 0.35313C4.83032 0.135334 5.17143 0 5.54778 0C5.92172 0 6.26195 0.135334 6.50919 0.35313C6.75742 0.573157 6.91047 0.873803 6.91047 1.20423V2.50247H9.63583V1.20423C9.63583 0.87196 9.78855 0.570538 10.0346 0.35313C10.2811 0.135334 10.6222 0 10.9985 0C11.3725 0 11.7127 0.135334 11.9599 0.35313C12.208 0.573157 12.3612 0.873803 12.3612 1.20423V2.50247H15.0866V1.20423C15.0866 0.87196 15.2393 0.570538 15.4853 0.35313C15.7318 0.135334 16.0729 0 16.4488 0C16.8231 0 17.1634 0.135334 17.4107 0.35313C17.6588 0.573157 17.8115 0.873803 17.8115 1.20423V2.50247H20.1829C21.1825 2.50247 22 3.22483 22 4.10814V20.3947C22 21.2776 21.1825 22 20.1829 22H1.81709C0.817478 22 0 21.2776 0 20.3947V4.10814C0 3.22483 0.817478 2.50247 1.81709 2.50247ZM16.0165 15.5643H19.0618V17.9334H16.0165V15.5643ZM11.6558 15.5643H14.7011V17.9334H11.6558V15.5643ZM7.29516 15.5643H10.3409V17.9334H7.29516V15.5643ZM2.93451 15.5643H5.98024V17.9334H2.93451V15.5643ZM16.0165 12.3533H19.0618V14.722H16.0165V12.3533ZM11.6558 12.3533H14.7011V14.722H11.6558V12.3533ZM7.29516 12.3533H10.3409V14.722H7.29516V12.3533ZM2.93451 12.3533H5.98024V14.722H2.93451V12.3533ZM16.0165 9.14354H19.0618V11.5122H16.0165V9.14354ZM11.6558 9.14354H14.7011V11.5122H11.6558V9.14354ZM7.29516 9.14354H10.3409V11.5122H7.29516V9.14354ZM2.93451 9.14354H5.98024V11.5122H2.93451V9.14354ZM1.8755 6.44162H20.1215V20.6335H1.8755V6.44162Z" fill="white"/>
</svg>
