<svg width="22" height="22" viewBox="0 0 22 22" fill="none" xmlns="http://www.w3.org/2000/svg">
    <path fill-rule="evenodd" clip-rule="evenodd"
          d="M14.8591 12.8141H18.6276V22H14.8591V12.8141ZM13.6746 22H0.538304V9.86592C1.95224 9.86592 2.17973 10.0023 3.33763 9.18535C4.63593 10.4375 6.53775 9.92992 7.21395 9.29898C8.06355 9.89792 9.13222 10.1129 10.1124 9.74352C10.1577 9.7265 10.2001 9.70959 10.2404 9.69379C11.5218 9.1773 10.3281 9.09557 11.7753 9.71152C12.6966 10.2092 13.8837 9.91066 14.7512 9.29898C15.5905 9.95458 17.5527 10.4492 18.6276 9.18535C19.7705 9.98648 19.7796 9.80936 21.4272 9.86592V22H19.8122V11.5669H13.6746V22ZM15.3975 7.82452V2.94853H18.0892V7.82452C18.0892 8.91498 15.3975 8.81398 15.3975 7.82452ZM11.6287 7.85845V2.94853H14.2129V7.82452C14.0362 8.60873 12.3133 8.93689 11.6287 7.85845ZM7.75264 7.82452V2.94853H10.3366V7.90238C9.61315 8.88919 7.85579 8.62218 7.75264 7.82452ZM3.87593 7.82452V2.94853H6.56814V7.82452C6.56814 8.81398 3.87593 8.91498 3.87593 7.82452ZM20.781 8.61841C20.1333 8.61841 19.2734 8.34722 19.2734 7.82452V2.94853H21.5347C21.7162 3.88877 22.8313 8.61841 20.781 8.61841ZM0 6.80427C0 5.35172 0.173306 4.40261 0.430411 2.94853H2.69172V7.82452C2.69172 8.58713 0 9.53012 0 6.80427ZM0.538304 0H21.4272V1.70092H0.538304V0ZM3.33763 12.8141H10.9828V19.0514H3.33763V12.8141ZM2.15342 20.4122H12.167V11.5669H2.15342V20.4122Z"
          fill="white"/>
</svg>
