<svg width="25" height="25" viewBox="0 0 25 25" fill="none" xmlns="http://www.w3.org/2000/svg">
    <path fill-rule="evenodd" clip-rule="evenodd"
          d="M10.487 3.66886C10.344 3.93798 10.2161 4.14215 10.07 4.42847C9.94008 4.68346 9.83933 4.93844 9.73005 5.21929C9.22776 7.04591 9.09636 8.28428 9.63783 10.248L9.73299 10.6406C9.33865 11.0685 8.88633 11.4858 8.46427 11.9082C5.76798 14.6063 2.92164 17.5256 0.213755 20.1612C-0.0577133 20.4254 -0.00334036 20.6002 0.0223805 21.2409L0.0218467 25H4.65332V22.2107L7.4357 22.2137L7.43624 19.432L9.93355 19.438C10.4221 19.4435 10.2327 19.3145 10.5475 19.1492C10.6327 18.9667 14.1691 15.4793 14.3726 15.2877C14.6798 15.3342 15.1799 15.5373 15.9138 15.6411C17.1751 15.8205 18.1276 15.7494 19.3455 15.4228L20.7472 14.9042L20.9019 14.7807C21.3008 14.5201 21.3633 14.5313 21.878 14.1473C22.8638 13.4123 23.782 12.3181 24.2947 11.1402C24.9394 9.65827 25.152 8.18999 24.8916 6.51047C24.7905 5.85528 24.6131 5.52562 24.5143 5.0942C24.4384 4.96418 24.4302 4.8855 24.3637 4.74093C24.3104 4.62398 24.2525 4.52969 24.1995 4.42327C24.1265 4.27711 23.9029 3.8785 23.8777 3.77315C23.7684 3.64419 23.7211 3.5267 23.6198 3.38961C23.5185 3.25198 23.444 3.15623 23.3473 3.02821L22.76 2.34474C22.4738 2.04229 21.7183 1.43644 21.3789 1.23533C18.6473 -0.380176 15.7321 -0.436586 12.9571 1.21626C12.3602 1.571 11.6954 2.14964 11.2678 2.65227L10.487 3.66886ZM18.9974 2.78923C20.1499 2.78923 21.0837 3.72367 21.0837 4.87696C21.0837 6.03011 20.1499 6.96523 18.9974 6.96523C17.845 6.96523 16.9107 6.03011 16.9107 4.87696C16.9107 3.72367 17.845 2.78923 18.9974 2.78923Z"
          fill="#EBECEC"/>
</svg>
