<svg width="22" height="22" viewBox="0 0 22 22" fill="none" xmlns="http://www.w3.org/2000/svg">
    <path d="M0 1.50483C0 0.673729 0.44772 0 1 0H21C21.5523 0 22 0.673729 22 1.50483C22 2.33594 21.5523 3.00967 21 3.00967H1C0.44772 3.00967 0 2.33594 0 1.50483Z"
          fill="white"/>
    <path d="M0 11.0002C0 10.1691 0.44772 9.49536 1 9.49536H21C21.5523 9.49536 22 10.1691 22 11.0002C22 11.8313 21.5523 12.505 21 12.505H1C0.44772 12.505 0 11.8313 0 11.0002Z"
          fill="white"/>
    <path d="M1 18.9902C0.44772 18.9902 0 19.6639 0 20.4951C0 21.3262 0.44772 21.9999 1 21.9999H21C21.5523 21.9999 22 21.3262 22 20.4951C22 19.6639 21.5523 18.9902 21 18.9902H1Z"
          fill="white"/>
</svg>
