<svg width="250" height="130" viewBox="0 0 250 130" fill="none" xmlns="http://www.w3.org/2000/svg">
<path fill-rule="evenodd" clip-rule="evenodd" d="M0 0H249.749V128.886H0V0Z" fill="#FEFEFE"/>
<path fill-rule="evenodd" clip-rule="evenodd" d="M7.55383 7.56524H242.192V121.315H7.55383V7.56524ZM4.2666 4.15356H245.482V124.729H4.2666V4.15356Z" fill="#9C9C9C"/>
<path d="M235.824 11.0813C236.663 11.0813 237.426 11.4226 237.977 11.9739C238.529 12.5257 238.87 13.2884 238.87 14.128C238.87 14.9677 238.529 15.7301 237.978 16.2811C237.426 16.8332 236.663 17.1745 235.824 17.1745C234.984 17.1745 234.222 16.8332 233.671 16.2819C233.119 15.7301 232.778 14.9677 232.778 14.128C232.778 13.2884 233.119 12.5257 233.67 11.9747C234.222 11.4226 234.984 11.0813 235.824 11.0813ZM237.689 12.2625C237.213 11.7856 236.553 11.4905 235.824 11.4905C235.095 11.4905 234.435 11.7856 233.959 12.2622C233.482 12.7394 233.187 13.3991 233.187 14.128C233.187 14.8567 233.482 15.5164 233.959 15.9928C234.435 16.4701 235.095 16.7653 235.824 16.7653C236.553 16.7653 237.213 16.4701 237.689 15.9936C238.166 15.5164 238.461 14.857 238.461 14.128C238.461 13.3991 238.166 12.7394 237.689 12.2625Z" fill="#9C9C9C"/>
<path d="M234.949 12.909C234.949 12.8385 234.964 12.7863 234.994 12.7524C235.024 12.7186 235.078 12.7017 235.156 12.7017H236.088C236.218 12.7017 236.335 12.7212 236.439 12.7606C236.544 12.7999 236.634 12.8554 236.71 12.9273C236.785 12.9991 236.844 13.0838 236.884 13.1813C236.925 13.279 236.945 13.386 236.945 13.5025C236.945 13.6653 236.905 13.8082 236.823 13.9315C236.742 14.0549 236.63 14.1437 236.486 14.1978V14.2142C236.597 14.2494 236.677 14.3016 236.726 14.3707C236.775 14.4398 236.812 14.5245 236.84 14.6247L237.076 15.4828C237.081 15.4962 237.081 15.5119 237.077 15.5295C237.073 15.5471 237.057 15.5559 237.027 15.5559H236.758C236.745 15.5559 236.731 15.5531 236.715 15.5477C236.701 15.5423 236.691 15.5274 236.685 15.503L236.47 14.7264C236.448 14.6478 236.42 14.5828 236.384 14.5312C236.349 14.4797 236.308 14.4391 236.26 14.4093C236.213 14.3794 236.16 14.3591 236.102 14.3483C236.044 14.3375 235.981 14.332 235.913 14.332H235.332V15.4868C235.332 15.5166 235.326 15.5355 235.315 15.5437C235.304 15.5518 235.284 15.5559 235.254 15.5559H235.026C234.999 15.5559 234.98 15.5518 234.968 15.5437C234.956 15.5355 234.949 15.5166 234.949 15.4868V12.909ZM236.571 13.5189C236.571 13.4646 236.563 13.4097 236.547 13.3542C236.531 13.2986 236.502 13.2478 236.461 13.2017C236.421 13.1557 236.367 13.1183 236.299 13.0899C236.231 13.0614 236.146 13.0471 236.043 13.0471H235.336V14.0067H236.014C236.112 14.0067 236.196 13.9938 236.266 13.9682C236.337 13.9424 236.394 13.9071 236.439 13.8625C236.484 13.8178 236.517 13.7661 236.539 13.7079C236.561 13.6496 236.571 13.5866 236.571 13.5189Z" fill="#9C9C9C"/>
<path d="M72.5206 17.2383L62.1825 41.4622L70.8084 41.3069V102.515H63.6931V111.454H70.8084H80.6039H85.228V102.515H80.6039V17.2383H72.5206Z" fill="#F7C90E"/>
<path d="M18.6508 17.2383V61.3425H28.5412V42.5995H41.6215L53.1839 61.3425H64.989L49.8352 37.656L63.9515 17.2383H52.4655L41.3821 33.508H28.5412V17.2383H18.6508Z" fill="#05B9BE"/>
<path d="M22.0593 82.521H30.0266V71.3665H18.8719V82.521H22.0593ZM20.4659 79.3334V72.9597H28.4332V80.9274H20.4659V79.3334Z" fill="#211E22"/>
<path d="M23.6524 92.0816V90.4887H22.0593V92.0816H20.4659V90.4887H22.0593V87.3015H20.4659V84.1143H18.8719V98.4557H20.4659V93.6752H22.0593V95.2684H25.2458V93.6752H23.6524V92.0816Z" fill="#211E22"/>
<path d="M26.8398 100.049H18.8719V111.203H30.0266V100.049H26.8398ZM28.4332 103.236V109.61H20.4659V101.643H28.4332V103.236Z" fill="#211E22"/>
<path d="M25.246 79.3334H26.8399V74.5537H22.0594V79.3334H25.246Z" fill="#211E22"/>
<path d="M23.6526 85.7082H30.0267V84.1143H22.0594V87.3015H23.6526V85.7082Z" fill="#211E22"/>
<path d="M25.246 98.4557V96.8628H22.0594V98.4557H25.246Z" fill="#211E22"/>
<path d="M23.6526 103.237H22.0594V108.017H26.8399V103.237H23.6526Z" fill="#211E22"/>
<path d="M30.0267 95.2685V93.6752H28.4333V92.0816H33.2138V85.7083H31.6207V88.8947H30.0267V90.4887H28.4333V88.8947H30.0267V87.3011H23.6526V88.8947H26.8399V90.4887H25.246V93.6752H26.8399V96.8624H28.4333V95.2685H30.0267Z" fill="#211E22"/>
<path d="M31.6206 95.2688H30.0267V96.8628H28.4332V98.4557H31.6206V95.2688Z" fill="#211E22"/>
<path d="M36.4012 85.7083V84.1143H34.8072V82.521H33.2138V79.3334H34.8072V76.147H33.2138V74.5537H31.6207V84.1143H33.2138V85.7083H36.4012Z" fill="#211E22"/>
<path d="M33.2138 92.0823V93.6755H31.6207V95.2691H34.8072V93.6755H36.4012V92.0823H33.2138Z" fill="#211E22"/>
<path d="M36.4012 96.8628V95.2688H34.8072V98.4557H31.6207V100.049H36.4012V96.8628Z" fill="#211E22"/>
<path d="M34.8072 103.237H33.2138V101.644H31.6207V108.017H33.2138V106.424H34.8072V108.017H33.2138V109.611H36.4012V104.83H34.8072V103.237Z" fill="#211E22"/>
<path d="M31.6207 111.203H33.214V109.61H31.6207V111.203Z" fill="#211E22"/>
<path d="M34.8069 72.9597H36.4009V76.1469H39.5874V74.5537H37.9941V72.9597H39.5874V74.5537H42.7746V76.1469H39.5874V77.7402H44.3682V76.1469H45.9611V72.9597H41.1806V71.3665H33.2135V74.5537H34.8069V72.9597Z" fill="#211E22"/>
<path d="M36.4011 80.9281H37.9945V79.3337H34.8071V82.5213H36.4011V80.9281Z" fill="#211E22"/>
<path d="M41.181 82.5213V84.1146H37.9945V85.7086H39.5874V87.3018H37.9945V85.7086H36.4011V87.3018H34.8071V90.489H36.4011V88.8951H41.181V90.489H39.5874V92.0823H37.9945V93.6755H41.181V92.0823H42.775V88.8951H44.3683V90.489H45.9615V92.0823H49.1487V88.8951H45.9615V85.7086H44.3683V87.3018H41.181V85.7086H42.775V80.9277H41.181V82.5213Z" fill="#211E22"/>
<path d="M52.3356 93.6755H50.7423V92.0823H49.1487V93.6755H47.5547V95.2691H49.1487V96.8631H45.9615V92.0823H44.3683V93.6755H41.181V96.8631H44.3683V98.456H42.775V100.05H44.3683V101.644H42.775V100.05H41.181V96.8631H39.5874V95.2691H37.9945V98.456H39.5874V100.05H36.4011V101.644H34.8071V103.237H36.4011V104.83H37.9945V101.644H41.181V103.237H42.775V106.424H41.181V104.83H37.9945V106.424H39.5874V108.018H37.9945V111.204H39.5874V109.611H41.181V108.018H44.3683V106.424H49.1487V104.83H50.7423V106.424H52.3356V108.018H44.3683V109.611H45.9615V111.204H58.71V103.237H53.9296V104.83H52.3356V103.237H53.9296V101.644H52.3356V100.05H53.9296V98.456H52.3356V95.2691H53.9296V92.0823H52.3356V93.6755ZM50.7423 100.05V103.237H45.9615V98.456H50.7423V100.05ZM53.9296 108.018H55.5228V106.424H57.116V109.611H53.9296V108.018Z" fill="#211E22"/>
<path d="M36.401 92.0823H37.9945V90.489H36.401V92.0823Z" fill="#211E22"/>
<path d="M37.9945 82.5213H39.5878V80.9277H37.9945V82.5213Z" fill="#211E22"/>
<path d="M39.5874 80.9281H41.1806V79.3337H39.5874V80.9281Z" fill="#211E22"/>
<path d="M41.1814 111.203H42.7754V109.61H41.1814V111.203Z" fill="#211E22"/>
<path d="M42.7754 80.9281H44.3683V79.3337H42.7754V80.9281Z" fill="#211E22"/>
<path d="M44.3682 79.3336H45.9618V77.7407H44.3682V79.3336Z" fill="#211E22"/>
<path d="M44.3682 84.1146H45.9614V80.9277H44.3682V84.1146Z" fill="#211E22"/>
<path d="M57.116 71.3665H47.5547V82.521H58.71V71.3665H57.116ZM57.116 74.5537V80.9274H49.1487V72.9597H57.116V74.5537Z" fill="#211E22"/>
<path d="M50.7419 90.4887V92.0816H52.3355V88.8947H53.9295V87.3015H50.7419V85.7082H55.5224V84.1143H47.5547V85.7082H49.1487V88.8947H50.7419V90.4887Z" fill="#211E22"/>
<path d="M47.5547 101.643H49.1487V100.049H47.5547V101.643Z" fill="#211E22"/>
<path d="M52.3352 74.5537H50.7419V79.3334H55.5224V74.5537H52.3352Z" fill="#211E22"/>
<path d="M57.1161 85.7083H55.5228V88.8947H57.1161V90.4887H53.9296V92.0816H55.5228V95.2685H57.1161V96.8624H58.71V93.6752H57.1161V92.0816H58.71V87.3011H57.1161V85.7083Z" fill="#211E22"/>
<path d="M53.9296 98.4557H55.5228V96.8628H53.9296V98.4557Z" fill="#211E22"/>
<path d="M55.5228 101.643H58.71V100.049H53.9296V101.643H55.5228Z" fill="#211E22"/>
<path d="M98.7214 42.9192H119.216C122.089 42.9192 124.081 44.7529 124.081 47.6259C124.081 50.3363 122.169 52.33 118.979 52.33H98.7214V42.9192ZM98.7214 26.1697H116.666C120.015 26.1697 121.051 28.324 121.051 30.2379C121.051 32.2322 119.616 34.2259 117.462 34.2259H98.7214V26.1697ZM88.7511 17.2375V61.3421H119.298C127.669 61.3421 133.812 55.2001 133.812 47.6259C133.812 42.2023 131.418 38.6116 127.351 36.5395C129.666 34.9447 130.782 32.2322 130.782 29.0426C130.782 21.8647 125.119 17.2375 117.143 17.2375H88.7511Z" fill="#92241F"/>
<path d="M140.432 17.2383V61.3425H181.584V52.1685H150.403V43.3961H177.437V34.3863H150.403V26.2505H180.466V17.2383H140.432Z" fill="#9C9C9C"/>
<path d="M198.968 26.3301H214.602C219.703 26.3301 223.212 29.4424 223.212 34.546C223.212 39.6494 219.703 42.4398 214.602 42.4398H198.968V26.3301ZM188.999 17.2383V61.3425H198.968V51.532H215.397L220.582 61.3425H231.428L224.649 49.2207C229.832 46.4281 233.182 41.3242 233.182 34.546C233.182 24.1767 225.366 17.2383 214.998 17.2383H188.999Z" fill="#1C556E"/>
<path d="M132.838 90.3535C132.838 77.0785 122.823 68.2283 110.976 68.2283C99.1292 68.2283 89.1145 77.0785 89.1145 90.3535C89.1145 103.631 99.1292 112.481 110.976 112.481C122.823 112.481 132.838 103.631 132.838 90.3535ZM97.932 90.3535C97.932 81.6545 103.643 76.3887 110.976 76.3887C118.309 76.3887 124.023 81.6545 124.023 90.3535C124.023 99.0532 118.309 104.316 110.976 104.316C103.643 104.316 97.932 99.0532 97.932 90.3535Z" fill="#211E22"/>
<path d="M138.01 69.2563V111.453H147.395V82.9909L172.652 111.453H181.733V69.2563H172.273V97.6414L147.016 69.2563H138.01Z" fill="#211E22"/>
<path d="M189.869 69.2563V111.453H229.242V102.676H199.409V94.2824H225.276V85.6613H199.409V77.8775H228.174V69.2563H189.869Z" fill="#211E22"/>
</svg>
